<?xml version="1.0" encoding="UTF-8"?>
<svg id="Layer_1" xmlns="http://www.w3.org/2000/svg" version="1.1" viewBox="0 0 361.5 167.3">
  <!-- Generator: Adobe Illustrator 29.1.0, SVG Export Plug-In . SVG Version: 2.1.0 Build 142)  -->
  <defs>
    <style>
      .st0 {
        fill: #fff;
      }

      .st1 {
        fill: none;
      }
    </style>
  </defs>
  <rect width="361.5" height="167.3"/>
  <polygon class="st0" points="86.5 128.5 90.6 109.6 99.2 108.7 98.5 111.5 93.2 112.1 92.2 117 96.3 116.6 95.6 119.4 91.5 119.8 90.3 125.4 96 124.8 95.4 127.6 86.5 128.5"/>
  <polygon class="st0" points="97.9 127.4 102 108.4 105 108.1 106.5 118.6 106.6 118.6 108.9 107.7 111.8 107.4 107.7 126.4 104.9 126.7 103.4 115.2 103.4 115.2 100.8 127.1 97.9 127.4"/>
  <polygon class="st0" points="116.1 109.8 113 110.1 113.6 107.3 123 106.3 122.3 109.1 119.3 109.4 115.8 125.6 112.6 125.9 116.1 109.8"/>
  <path class="st0" d="M126.2,114.3h1.1c1.7-.3,2.5-1,3-3.3.5-2.3,0-2.8-1.7-2.7h-1.1c0,.1-1.3,5.9-1.3,5.9ZM123.9,124.7l-3.2.3,4.1-18.9,4.5-.5c3.6-.4,5.1,1,4.2,5-.7,3-2.1,4.4-3.3,5l.8,8.3-3.2.3-.6-7.6c-.4,0-1.1.2-1.6.2l-1.7,7.8Z"/>
  <rect class="st1" width="361.5" height="167.3"/>
  <polygon class="st0" points="133.6 123.8 137.7 104.8 146.2 104 145.6 106.8 140.2 107.3 139.2 112.2 143.3 111.8 142.7 114.6 138.6 115 137.4 120.6 143 120 142.4 122.9 133.6 123.8"/>
  <path class="st0" d="M150.4,111.8h1.2c2.1-.3,2.9-1.1,3.4-3.3.5-2.3,0-2.8-2.1-2.6h-1.2c0,.1-1.3,5.9-1.3,5.9ZM144.9,122.6l4.1-18.9,4.6-.5c3.9-.4,5.4,1,4.5,5-.9,4-3,5.8-6.9,6.2h-1.4c0,.1-1.7,7.9-1.7,7.9l-3.2.3Z"/>
  <path class="st0" d="M163.2,110.5h1.1c1.7-.3,2.5-1,3-3.3.5-2.3,0-2.8-1.7-2.7h-1.1c0,.1-1.3,5.9-1.3,5.9ZM160.9,121l-3.2.3,4.1-18.9,4.5-.5c3.6-.4,5.1,1,4.2,5-.7,3-2.1,4.4-3.3,5l.8,8.3-3.2.3-.6-7.6c-.4,0-1.1.2-1.6.2l-1.7,7.8Z"/>
  <rect class="st1" width="361.5" height="167.3"/>
  <polygon class="st0" points="170.6 120 174.7 101.1 183.2 100.2 182.6 103 177.3 103.6 176.2 108.5 180.3 108 179.7 110.9 175.6 111.3 174.4 116.9 180.1 116.3 179.5 119.1 170.6 120"/>
  <polygon class="st0" points="182 118.9 186.1 99.9 189 99.6 190.6 110.1 190.6 110.1 193 99.2 195.8 98.9 191.7 117.9 189 118.1 187.5 106.7 187.4 106.7 184.9 118.6 182 118.9"/>
  <polygon class="st0" points="194.8 117.6 198.9 98.6 207.4 97.8 206.8 100.6 201.5 101.1 200.4 106 204.5 105.6 203.9 108.4 199.8 108.8 198.6 114.4 204.3 113.8 203.7 116.7 194.8 117.6"/>
  <polygon class="st0" points="210 100.3 210.6 97.4 219 96.6 218.4 99.7 209.7 113.3 215.5 112.7 214.9 115.5 205.8 116.4 206.5 113.3 215.2 99.7 210 100.3"/>
  <polygon class="st0" points="221.1 128.6 225.2 109.7 228.4 109.4 224.9 125.5 229.9 125 229.3 127.8 221.1 128.6"/>
  <polygon class="st0" points="236.1 111.6 233.6 115 232.3 115.2 234.2 111.8 233.1 111.9 233.7 108.8 236.8 108.5 236.1 111.6"/>
  <path class="st0" d="M239.9,119.8l2.6-.3.5-8h0s-3,8.3-3,8.3ZM237.4,127l-3.1.3,7.5-19.3,3.9-.4-.7,18.6-3.1.3.3-4.1-3.5.4-1.5,4.3Z"/>
  <polygon class="st0" points="256.6 106.5 259.7 106.2 251.7 125.5 248.5 125.8 248.8 107.3 251.9 107 251.4 119.9 251.4 119.9 256.6 106.5"/>
  <polygon class="st0" points="257.4 125 261.5 106 270 105.2 269.4 108 264 108.5 263 113.4 267.1 113 266.5 115.8 262.4 116.2 261.2 121.8 266.9 121.2 266.2 124.1 257.4 125"/>
  <polygon class="st0" points="268.8 123.8 272.9 104.9 275.8 104.6 277.3 115 277.4 115 279.7 104.2 282.6 103.9 278.5 122.8 275.7 123.1 274.2 111.7 274.2 111.7 271.6 123.5 268.8 123.8"/>
  <polygon class="st0" points="282 122.5 286.1 103.5 289.3 103.2 285.2 122.1 282 122.5"/>
  <path class="st0" d="M294.1,111h1.1c1.7-.3,2.5-1,3-3.3.5-2.3,0-2.8-1.7-2.7h-1.1c0,.1-1.3,5.9-1.3,5.9ZM291.9,121.5l-3.2.3,4.1-18.9,4.5-.5c3.6-.4,5.1,1,4.2,5-.7,3-2.1,4.4-3.3,5l.8,8.3-3.2.3-.6-7.6c-.4,0-1.1.2-1.6.2l-1.7,7.8Z"/>
  <rect class="st1" width="361.5" height="167.3"/>
  <polygon class="st0" points="301.3 120.5 302 117.4 305 117.1 304.4 120.2 301.3 120.5"/>
  <polygon class="st0" points="135.4 68.1 121.6 68.1 121.6 75.9 137 75.9 137 83.4 112.6 83.4 112.6 45.6 136.2 45.6 136.2 53.1 121.6 53.1 121.6 60 135.4 60 135.4 68.1"/>
  <path class="st0" d="M159.3,55.7c-.1.2-4.4,8.2-4.4,8.2h-.1s-.3,0-.3,0c0,0-4.6-7.6-4.9-8.2h-10.1c.4.6,8.9,13.6,8.9,13.6,0,0-8.6,13.5-9,14.1h9.8c.1-.2,4.5-8.5,4.5-8.5h.4s0,.1,0,.1c.5,1.4,4.4,7.8,4.7,8.4h10.3c-.4-.6-8.9-14.6-8.9-14.6,0,0,8.4-12.5,8.8-13.1h-9.7Z"/>
  <path class="st0" d="M223.3,65.2c0-3.7-.1-6.9-.2-9.5h7.9l.5,3.6h.2c1-1.4,2.7-4.2,7.4-4.2s10.1,3.8,10.1,12.1v16.3h-9.3v-15c0-3.2-1.1-5.1-3.5-5.1s-2.9,1.4-3.4,2.5c-.2.5-.3,1.3-.3,2.1v15.6h-9.3v-18.2Z"/>
  <path class="st0" d="M70.1,65.2c0-3.7-.1-6.9-.2-9.5h7.9l.5,3.6h.2c1-1.4,2.7-4.2,7.4-4.2s10.1,3.8,10.1,12.1v16.3h-9.3v-15c0-3.2-1.1-5.1-3.5-5.1s-2.9,1.4-3.4,2.5c-.2.5-.3,1.3-.3,2.1v15.6h-9.3v-18.2Z"/>
  <path class="st0" d="M253.3,64.5h0c0,2.6,1.3,6,7.8,8.1,2.9.9,3.9,1.5,3.9,2.8s-1.8,1.9-3.4,1.9c-2.4,0-5.6-1-7.4-1.9-.2.9-1.4,5.7-1.5,6.3,2.3,1.1,5.6,1.8,9,1.8,7.7,0,12.2-3.3,12.2-8.9,0-4.1-2.3-6.6-7.3-8.3-3.1-1-4.4-1.7-4.4-3s.5-2,3.2-2,4.5.8,5.8,1.4c.2-.8,1.3-5.5,1.4-6.1-1.7-.7-4.4-1.4-7.7-1.4-6.9,0-11.6,3.7-11.6,9.2"/>
  <rect class="st1" width="361.5" height="167.3"/>
  <rect class="st0" x="56.3" y="45.6" width="8.8" height="37.8"/>
  <path class="st0" d="M291.1,77.1c-3,0-5-3-5-7.6s1.3-7.6,5-7.6,4.8,4.1,4.8,7.5-1.9,7.6-4.9,7.6M291,84c7.3,0,14.6-4.6,14.6-14.7s-3.6-14.2-14.1-14.2-14.8,7.9-14.8,14.6,5.9,14.3,14.4,14.3"/>
  <path class="st0" d="M206.8,61.5c3.4,0,4.4,3.1,4.4,4.8h-9.1c0-2.4,1.7-4.8,4.7-4.8M216.5,75.8c-1,.3-2,.6-3,.8-1.2.2-2.4.4-3.6.4-4,0-7.2-1.3-7.7-4.5h17.1c.1-.6.4-2.1.4-3.6,0-7.2-3.6-13.8-12.8-13.8s-13.7,7-13.7,14.8,6.3,14.2,15.1,14.2,3.9-.2,5.2-.5c1.4-.3,3-.7,4.3-1.3l-1.4-6.4Z"/>
  <path class="st0" d="M175,48v7.6h-3.5v6.9h3.5v11.4c0,6.3,2.8,10.1,9.3,10.1s2.6-.1,3.8-.3c1.2-.2,2.2-.4,2.7-.5,0,0,0-7.3,0-7.3-.3.1-2.4.5-3.1.5s-1.8,0-2.6-.9c-.6-.6-1-1.5-1-3.1v-9.8h5.9v-6.9h-5.9v-8.6l-9,1Z"/>
  <rect class="st1" width="361.5" height="167.3"/>
</svg>